<?xml version="1.0" encoding="UTF-8"?><svg xmlns="http://www.w3.org/2000/svg" xmlns:xlink="http://www.w3.org/1999/xlink" height="1139.4" preserveAspectRatio="xMidYMid meet" version="1.0" viewBox="0.0 0.0 648.0 1139.4" width="648.0" zoomAndPan="magnify"><defs><clipPath id="a"><path d="M 0 0 L 648.019531 0 L 648.019531 1139.449219 L 0 1139.449219 Z M 0 0"/></clipPath></defs><g><g clip-path="url(#a)" id="change1_1"><path d="M 644.09375 610.574219 C 644.027344 628.507812 643.960938 646.4375 643.898438 664.371094 C 643.757812 703.210938 645.011719 742.226562 642.265625 780.796875 C 641.347656 793.691406 639.53125 806.476562 637.484375 819.230469 C 624.4375 900.671875 592.300781 974.140625 545.054688 1030.558594 C 534.773438 1042.839844 509.332031 1067.308594 496.792969 1076.980469 C 453.597656 1110.28125 405.640625 1129.519531 354.050781 1134.230469 C 352.601562 1134.359375 331.875 1135.46875 323.832031 1135.46875 C 315.792969 1135.46875 295.066406 1134.359375 293.617188 1134.230469 C 242.023438 1129.519531 194.070312 1110.28125 150.875 1076.980469 C 138.335938 1067.308594 112.894531 1042.839844 102.609375 1030.558594 C 55.363281 974.140625 23.230469 900.671875 10.179688 819.234375 C 8.203125 806.890625 6.425781 794.519531 5.492188 782.046875 C 4.992188 775.382812 4.703125 768.699219 4.496094 762.019531 C 3.929688 743.9375 3.78125 725.824219 3.792969 707.695312 C 4.136719 672.449219 4.449219 607.367188 4.339844 569.722656 C 4.449219 532.078125 4.101562 431.714844 3.792969 431.753906 C 3.78125 413.625 3.929688 395.511719 4.496094 377.429688 C 4.703125 370.746094 4.992188 364.066406 5.492188 357.402344 C 6.425781 344.929688 8.203125 332.558594 10.179688 320.214844 C 23.230469 238.777344 55.363281 165.308594 102.609375 108.890625 C 112.894531 96.601562 138.335938 72.140625 150.875 62.46875 C 194.070312 29.171875 242.023438 9.929688 293.617188 5.21875 C 295.066406 5.078125 315.792969 3.980469 323.832031 3.980469 C 331.875 3.980469 352.601562 5.078125 354.050781 5.21875 C 405.640625 9.929688 453.597656 29.171875 496.792969 62.46875 C 509.332031 72.140625 534.773438 96.601562 545.054688 108.890625 C 592.300781 165.308594 624.4375 238.777344 637.484375 320.21875 C 639.53125 332.972656 641.347656 345.757812 642.265625 358.652344 C 645.011719 397.222656 643.757812 436.238281 643.898438 475.078125 C 643.960938 493.011719 644.027344 510.941406 644.09375 528.875 C 644.136719 540.753906 644.179688 554.519531 644.230469 569.722656 C 644.179688 584.929688 644.136719 598.695312 644.09375 610.574219 Z M 647.984375 569.722656 C 648.101562 528.484375 647.816406 413.804688 647.519531 413.769531 C 647.246094 381.042969 646.089844 348.378906 640.6875 316.136719 C 621.371094 200.851562 565.601562 104.910156 485.675781 49.449219 C 447.992188 23.308594 406.035156 7.390625 360.039062 1.800781 C 352.03125 0.828125 337.675781 0 323.832031 0 C 309.988281 0 295.636719 0.828125 287.628906 1.800781 C 241.632812 7.390625 199.675781 23.308594 161.988281 49.449219 C 82.0625 104.910156 26.292969 200.851562 6.980469 316.136719 C 4.28125 332.234375 1.734375 348.40625 0.886719 364.730469 C -0.324219 388.117188 0.0273438 411.242188 0.113281 434.582031 C 0.179688 453.640625 0.25 472.703125 0.320312 491.761719 C 0.355469 502.292969 0.394531 512.824219 0.433594 523.355469 C 0.480469 536.65625 0.53125 552.3125 0.585938 569.722656 C 0.53125 587.136719 0.480469 602.789062 0.433594 616.09375 C 0.394531 626.625 0.355469 637.15625 0.320312 647.6875 C 0.25 666.746094 0.179688 685.808594 0.113281 704.867188 C 0.0273438 728.207031 -0.324219 751.328125 0.886719 774.71875 C 1.734375 791.039062 4.28125 807.214844 6.980469 823.3125 C 26.292969 938.597656 82.0625 1034.539062 161.988281 1090 C 199.675781 1116.140625 241.632812 1132.058594 287.628906 1137.648438 C 295.636719 1138.621094 309.988281 1139.449219 323.832031 1139.449219 C 337.675781 1139.449219 352.03125 1138.621094 360.039062 1137.648438 C 406.035156 1132.058594 447.992188 1116.140625 485.675781 1090 C 565.601562 1034.539062 621.371094 938.597656 640.6875 823.3125 C 646.089844 791.070312 647.246094 758.40625 647.519531 725.679688 C 647.882812 671.640625 648.101562 610.964844 647.984375 569.722656" fill="#131212"/></g><g id="change1_2"><path d="M 608.75 607.914062 L 608.574219 658.210938 C 608.542969 667.585938 608.59375 677.128906 608.644531 686.359375 C 608.789062 712.878906 608.933594 740.296875 607.121094 767.035156 C 606.253906 779.804688 604.484375 792.347656 602.867188 802.9375 C 591.222656 879.222656 562.777344 947.480469 520.613281 1000.320312 C 511.390625 1011.878906 488.921875 1034.558594 477.675781 1043.660156 C 439.289062 1074.71875 396.578125 1092.699219 350.730469 1097.101562 C 349.40625 1097.21875 330.90625 1098.25 323.851562 1098.25 C 316.796875 1098.25 298.296875 1097.21875 296.972656 1097.101562 C 251.125 1092.699219 208.414062 1074.71875 170.027344 1043.660156 C 158.785156 1034.558594 136.3125 1011.878906 127.089844 1000.320312 C 84.925781 947.480469 56.484375 879.222656 44.832031 802.9375 C 43.261719 792.640625 41.539062 780.464844 40.664062 768.203125 C 40.273438 762.757812 39.992188 756.8125 39.773438 749.492188 C 39.335938 734.6875 39.136719 718.550781 39.148438 698.71875 C 39.457031 665.820312 39.730469 604.75 39.636719 569.726562 C 39.683594 553.320312 39.640625 522.140625 39.53125 492.140625 C 39.378906 449.105469 39.253906 442.007812 39.105469 440.734375 L 39.148438 440.734375 C 39.136719 420.898438 39.335938 404.761719 39.773438 389.953125 C 39.992188 382.636719 40.273438 376.691406 40.664062 371.246094 C 41.539062 358.984375 43.261719 346.808594 44.832031 336.511719 C 56.484375 260.226562 84.925781 191.96875 127.089844 139.121094 C 136.3125 127.570312 158.785156 104.890625 170.027344 95.789062 C 208.414062 64.730469 251.125 46.75 296.972656 42.351562 C 298.296875 42.230469 316.796875 41.199219 323.851562 41.199219 C 330.90625 41.199219 349.40625 42.230469 350.730469 42.351562 C 396.578125 46.75 439.289062 64.730469 477.675781 95.789062 C 488.921875 104.890625 511.390625 127.570312 520.613281 139.121094 C 562.777344 191.96875 591.222656 260.226562 602.867188 336.511719 C 604.484375 347.101562 606.253906 359.644531 607.121094 372.414062 C 608.933594 399.152344 608.789062 426.570312 608.644531 453.089844 C 608.59375 462.320312 608.542969 471.863281 608.574219 481.238281 L 608.75 531.535156 C 608.785156 542.640625 608.828125 555.511719 608.871094 569.722656 C 608.828125 583.9375 608.785156 596.808594 608.75 607.914062 Z M 612.953125 482.371094 C 612.910156 465.757812 612.855469 451.550781 612.800781 441.289062 C 612.769531 435.960938 612.738281 431.617188 612.707031 428.605469 C 612.675781 425.652344 612.664062 424.429688 612.578125 423.914062 L 612.609375 423.914062 C 612.375 394.835938 611.476562 363.644531 606.515625 332.574219 C 597.945312 278.890625 581.511719 229.84375 557.671875 186.800781 C 533.828125 143.746094 503.746094 108.820312 468.265625 82.980469 C 434.765625 58.589844 397.046875 43.570312 356.15625 38.359375 C 349.582031 37.519531 337.046875 36.671875 323.851562 36.671875 C 310.65625 36.671875 298.121094 37.519531 291.546875 38.359375 C 250.65625 43.570312 212.9375 58.589844 179.4375 82.980469 C 143.957031 108.820312 113.875 143.746094 90.027344 186.800781 C 66.191406 229.84375 49.757812 278.890625 41.1875 332.574219 C 38.757812 347.804688 36.511719 362.742188 35.753906 378.050781 C 34.835938 396.714844 34.929688 415.554688 35.023438 433.773438 C 35.039062 436.972656 35.054688 440.171875 35.066406 443.378906 L 35.351562 526.371094 C 35.394531 538.808594 35.4375 553.449219 35.488281 569.722656 C 35.4375 586 35.394531 600.640625 35.351562 613.074219 L 35.066406 696.074219 C 35.054688 699.277344 35.039062 702.476562 35.023438 705.675781 C 34.929688 723.894531 34.835938 742.734375 35.753906 761.398438 C 36.511719 776.707031 38.757812 791.644531 41.1875 806.875 C 49.757812 860.558594 66.191406 909.605469 90.027344 952.648438 C 113.875 995.703125 143.957031 1030.628906 179.4375 1056.46875 C 212.9375 1080.859375 250.65625 1095.871094 291.546875 1101.089844 C 298.121094 1101.929688 310.65625 1102.78125 323.851562 1102.78125 C 337.046875 1102.78125 349.582031 1101.929688 356.15625 1101.089844 C 397.046875 1095.871094 434.765625 1080.859375 468.265625 1056.46875 C 503.746094 1030.628906 533.828125 995.703125 557.671875 952.648438 C 581.511719 909.605469 597.945312 860.558594 606.515625 806.875 C 611.476562 775.804688 612.375 744.613281 612.609375 715.535156 C 612.964844 659.890625 613.121094 605.382812 613.023438 569.726562 C 613.070312 551.632812 613.042969 516.527344 612.953125 482.371094" fill="#131212"/></g></g></svg>